HIERARCHY
ROOT Hips
{
     OFFSET -73.12110 99.63360 56.13470
     CHANNELS 6 Xposition Yposition Zposition Zrotation Xrotation Yrotation
     JOINT Spine
     {
          OFFSET 0.00000 11.89050 0.00000
          CHANNELS 3 Zrotation Xrotation Yrotation
          JOINT Spine1
          {
               OFFSET 0.00000 25.65740 0.12766
               CHANNELS 3 Zrotation Xrotation Yrotation
               JOINT HEad
               {
                    OFFSET 0.00000 8.73416 0.01134
                    CHANNELS 3 Zrotation Xrotation Yrotation
                    End Site
                    {
                         OFFSET -0.29000 12.77420 2.51395
                    }
               }
               JOINT LeftShoulder1
               {
                    OFFSET 8.99000 -0.36225 -0.22000
                    CHANNELS 3 Zrotation Xrotation Yrotation
                    JOINT LeftArm
                    {
                         OFFSET 10.28270 -0.00338 0.32212
                         CHANNELS 3 Zrotation Xrotation Yrotation
                         JOINT LeftForeArm
                         {
                              OFFSET 32.76690 0.09914 -1.42434
                              CHANNELS 3 Zrotation Xrotation Yrotation
                              JOINT LeftHand
                              {
                                   OFFSET 27.56430 0.08536 1.02216
                                   CHANNELS 3 Zrotation Xrotation Yrotation
                                   End Site
                                   {
                                        OFFSET 16.74430 -0.60000 1.50291
                                   }
                              }
                         }
                    }
               }
               JOINT RightShoulder
               {
                    OFFSET -8.99000 -0.36225 -0.22000
                    CHANNELS 3 Zrotation Xrotation Yrotation
                    JOINT RightArm
                    {
                         OFFSET -10.28270 -0.00338 0.32212
                         CHANNELS 3 Zrotation Xrotation Yrotation
                         JOINT RightForeArm
                         {
                              OFFSET -32.89710 0.09914 -1.42434
                              CHANNELS 3 Zrotation Xrotation Yrotation
                              JOINT RightHand
                              {
                                   OFFSET -27.49210 0.08536 1.02216
                                   CHANNELS 3 Zrotation Xrotation Yrotation
                                   End Site
                                   {
                                        OFFSET -16.63120 -0.60000 1.50291
                                   }
                              }
                         }
                    }
               }
          }
     }
     JOINT LeftUpLeg
     {
          OFFSET 8.94580 -8.66707 0.10165
          CHANNELS 3 Zrotation Xrotation Yrotation
          JOINT LeftLeg
          {
               OFFSET 0.00000 -44.42270 1.37270
               CHANNELS 3 Zrotation Xrotation Yrotation
               JOINT LeftFoot
               {
                    OFFSET -0.25355 -42.09240 -1.46059
                    CHANNELS 3 Zrotation Xrotation Yrotation
                    JOINT LeftToes
                    {
                         OFFSET -0.04000 -4.41509 8.49910
                         CHANNELS 3 Zrotation Xrotation Yrotation
                         End Site
                         {
                              OFFSET 0.08000 -0.04745 9.77979
                         }
                    }
               }
          }
     }
     JOINT RightUpLeg
     {
          OFFSET -8.94580 -8.66707 0.10165
          CHANNELS 3 Zrotation Xrotation Yrotation
          JOINT RightLeg
          {
               OFFSET -0.00000 -44.42270 1.37270
               CHANNELS 3 Zrotation Xrotation Yrotation
               JOINT RightFoot
               {
                    OFFSET 0.25355 -42.09240 -1.46059
                    CHANNELS 3 Zrotation Xrotation Yrotation
                    JOINT RightToes
                    {
                         OFFSET 0.04000 -4.41509 8.49910
                         CHANNELS 3 Zrotation Xrotation Yrotation
                         End Site
                         {
                              OFFSET -0.08000 -0.13745 9.77979
                         }
                    }
               }
          }
     }
}
MOTION
Frames: 14
Frame Time: 0.01667
-69.40670 99.52060 51.93850 -1.01336 -3.06312 -46.12360 2.06559 3.64712 1.74063 4.06573 7.41047 3.75668 -8.44309 -2.76379 17.23450 -0.00000 -0.00000 0.00000 -124.79900 -58.81480 -116.95900 -39.37580 38.19590 -66.40370 14.82460 7.18491 -17.58730 -0.41313 0.28644 1.89500 60.55400 3.58621 92.57920 40.41350 2.07419 54.19730 -7.48384 7.93966 28.39510 6.78094 -12.36190 -14.66180 1.13110 14.69520 5.34275 -4.75908 -5.32506 0.11405 -4.12084 4.61209 12.52690 -12.47830 9.64255 -20.78870 0.49805 18.32910 -7.03323 10.68440 -12.61950 0.26597 0.57297 -10.24010 6.31756 
-69.48980 99.49030 52.00550 -0.98905 -3.07516 -46.10940 2.16973 3.54205 1.78089 4.25035 7.21008 3.83775 -8.63797 -2.49639 17.21800 -0.00000 -0.00000 0.00000 -123.52300 -58.99810 -116.23400 -38.90720 37.34770 -66.49920 14.84730 7.16664 -17.69580 -0.91686 0.27018 1.89457 60.34580 3.64977 93.48090 40.17020 0.87466 53.62930 -7.63089 7.86731 28.84830 7.00883 -12.24340 -14.82040 0.61302 14.33080 5.60088 -3.23714 -4.17408 0.10849 -3.86131 3.97201 12.31220 -12.50770 9.74014 -20.77570 0.56595 18.27870 -7.02325 10.47190 -12.64810 0.25906 0.60710 -10.41620 6.11868 
-69.58060 99.46430 52.11220 -0.92332 -3.11915 -46.04910 2.26073 3.41885 1.80676 4.39417 6.97400 3.89155 -8.80738 -2.20772 17.25000 -0.00000 -0.00000 0.00000 -122.17000 -59.17180 -115.44600 -38.41000 36.44850 -66.58870 14.88530 7.14495 -17.80720 -1.37974 0.25649 1.93355 60.23970 3.64043 94.38270 39.66960 -0.26035 53.13330 -7.46945 7.91342 28.87510 7.18897 -12.11350 -14.86330 0.05479 13.95870 5.77518 -1.72679 -3.22796 0.07089 -3.62495 3.39694 12.09900 -12.58420 9.89677 -20.68660 0.65976 18.15730 -7.15221 10.29460 -12.68860 0.25462 0.62428 -10.48160 5.95626 
-69.67710 99.44870 52.24730 -0.83814 -3.19287 -45.93860 2.34827 3.29240 1.82727 4.51243 6.73267 3.93315 -8.94917 -1.88916 17.30280 -0.00000 -0.00000 0.00000 -120.66700 -59.29180 -114.54400 -37.81120 35.46170 -66.71170 14.89900 7.12980 -17.90440 -1.87159 0.24002 1.91726 60.28620 3.64864 95.28520 38.99430 -1.30603 52.64610 -7.16894 8.01143 28.72700 7.29852 -11.95420 -14.75050 -0.43962 13.58600 5.74715 -0.35897 -2.49916 0.01568 -3.44284 2.94155 11.94540 -12.69610 10.12180 -20.49340 0.79922 17.98010 -7.44631 10.26060 -12.80580 0.26307 0.59523 -10.22110 5.86643 
-69.77720 99.44630 52.40310 -0.75801 -3.28296 -45.76820 2.43821 3.17987 1.85364 4.63267 6.51975 3.98119 -9.09138 -1.52439 17.30810 -0.00000 -0.00000 0.00000 -119.04500 -59.31570 -113.55100 -37.09840 34.39450 -66.87180 14.87000 7.12842 -17.96000 -2.49198 0.21507 1.69445 60.55940 3.77323 96.22770 38.31630 -2.31698 52.12660 -6.80552 8.12602 28.59600 7.31329 -11.77240 -14.48200 -0.75982 13.25650 5.45414 0.76079 -1.97303 -0.04157 -3.31300 2.59571 11.86100 -12.82800 10.42610 -20.21710 1.00284 17.75490 -7.88925 10.45310 -13.02560 0.29101 0.50357 -9.52873 5.90063 
-69.87610 99.45590 52.57570 -0.68407 -3.37360 -45.53090 2.52113 3.08851 1.88999 4.75959 6.34750 4.04313 -9.25918 -1.13578 17.22940 -0.00000 -0.00000 0.00000 -117.36400 -59.23300 -112.51800 -36.30210 33.28140 -67.05320 14.80160 7.14183 -17.96120 -3.26003 0.18427 1.20232 61.04060 4.04203 97.22220 37.79930 -3.35913 51.58840 -6.44834 8.23108 28.59030 7.22203 -11.61010 -14.16220 -0.88512 13.02550 4.98855 1.55057 -1.65548 -0.08707 -3.23196 2.36986 11.82070 -12.97660 10.79310 -19.90110 1.27062 17.49410 -8.44877 10.90710 -13.32430 0.33997 0.35039 -8.44981 6.09504 
-69.97020 99.47390 52.76190 -0.60027 -3.45486 -45.24350 2.57627 3.01007 1.93397 4.86422 6.19752 4.11793 -9.44630 -0.76800 17.09220 -0.00000 -0.00000 0.00000 -115.60900 -59.08160 -111.44200 -35.48170 32.14800 -67.23020 14.70910 7.16455 -17.92670 -4.06062 0.15816 0.56012 61.60680 4.35582 98.20150 37.50520 -4.42229 51.07240 -6.17149 8.30542 28.72310 7.04603 -11.50630 -13.94290 -0.89685 12.91150 4.55133 2.00185 -1.53481 -0.11362 -3.19093 2.26504 11.78740 -13.13830 11.17500 -19.59030 1.55500 17.22240 -9.07256 11.59440 -13.63130 0.40469 0.15647 -7.18451 6.44763 
-70.06040 99.49490 52.95790 -0.48917 -3.52127 -44.94310 2.58677 2.92903 1.98272 4.90867 6.03837 4.20510 -9.62837 -0.44892 16.94210 -0.00000 -0.00000 0.00000 -113.72500 -58.91870 -110.29000 -34.72420 31.00530 -67.36720 14.61210 7.18881 -17.88640 -4.73067 0.14314 -0.01131 62.12470 4.54806 99.06060 37.38910 -5.42931 50.60040 -5.98868 8.34828 28.94390 6.82146 -11.47060 -13.89250 -0.88430 12.88910 4.27349 2.19688 -1.55859 -0.12347 -3.17624 2.25193 11.74280 -13.30060 11.51270 -19.34370 1.77667 16.97040 -9.66523 12.39160 -13.84250 0.46944 -0.03372 -6.06508 6.89685 
-70.14810 99.51390 53.15970 -0.33729 -3.57163 -44.66670 2.55379 2.83744 2.03867 4.87816 5.85537 4.31213 -9.80720 -0.19511 16.79850 -0.00000 -0.00000 0.00000 -111.75700 -58.77930 -109.09200 -34.12110 29.89800 -67.43100 14.53930 7.20679 -17.85760 -5.20489 0.13650 -0.38618 62.53290 4.53523 99.75690 37.36010 -6.32182 50.17860 -5.83213 8.38305 29.18530 6.57328 -11.48930 -13.97060 -0.89114 12.91020 4.15660 2.27307 -1.64817 -0.12523 -3.17478 2.28416 11.69370 -13.46530 11.75600 -19.21210 1.89138 16.77480 -10.12210 13.10650 -13.88290 0.51360 -0.16725 -5.39807 7.32976 
-70.23120 99.52770 53.36130 -0.14769 -3.61364 -44.44190 2.49883 2.74397 2.10790 4.79660 5.66796 4.44938 -10.01220 -0.03997 16.65990 -0.00000 -0.00000 0.00000 -109.88100 -58.67270 -107.95300 -33.70760 28.90630 -67.41850 14.50510 7.21487 -17.84690 -5.55909 0.13335 -0.62556 62.84410 4.38685 100.35100 37.33920 -7.09716 49.82110 -5.62861 8.43431 29.39050 6.31707 -11.53610 -14.08840 -0.92649 12.93670 4.13065 2.34592 -1.74074 -0.12661 -3.18089 2.32654 11.66310 -13.65650 11.88680 -19.17460 1.93701 16.66730 -10.41520 13.55770 -13.74920 0.52343 -0.20856 -5.31439 7.62869 
-70.30710 99.53440 53.55450 0.05300 -3.65883 -44.27240 2.45031 2.66598 2.18983 4.71350 5.51228 4.61162 -10.24780 -0.02356 16.53620 -0.00000 -0.00000 0.00000 -108.24700 -58.59990 -106.95900 -33.44220 28.07490 -67.36090 14.47980 7.21837 -17.85890 -5.91859 0.13162 -0.86187 63.10790 4.23361 100.92900 37.28640 -7.77059 49.53880 -5.38099 8.50232 29.53500 6.06664 -11.58580 -14.15380 -0.97204 12.96750 4.09005 2.45533 -1.81891 -0.13013 -3.19662 2.36422 11.67940 -13.89130 11.93540 -19.13620 2.00841 16.64900 -10.62470 13.64650 -13.48920 0.49814 -0.15318 -5.76231 7.71933 
-70.37640 99.53330 53.73430 0.23509 -3.71114 -44.12710 2.42259 2.61034 2.27122 4.66476 5.40204 4.77049 -10.47130 -0.13502 16.45070 -0.00000 -0.00000 0.00000 -106.87300 -58.56030 -106.10800 -33.25700 27.39830 -67.29970 14.41930 7.22581 -17.89520 -6.33267 0.13141 -1.13012 63.36390 4.13232 101.48900 37.18750 -8.32990 49.32740 -5.16549 8.56293 29.63930 5.82811 -11.63400 -14.11110 -0.99513 13.02980 3.93714 2.58286 -1.89384 -0.13452 -3.21822 2.38261 11.74600 -14.15930 11.95990 -19.01510 2.18264 16.68890 -10.85770 13.40500 -13.17110 0.44934 -0.02737 -6.55544 7.58753 
-70.44070 99.52510 53.90030 0.38292 -3.76673 -43.96020 2.40726 2.56886 2.33331 4.64717 5.31967 4.89033 -10.62860 -0.29234 16.41950 -0.00000 -0.00000 0.00000 -105.65900 -58.55050 -105.33100 -33.09260 26.85310 -67.26810 14.30560 7.24056 -17.95810 -6.71414 0.13235 -1.33849 63.59600 4.03171 101.93900 37.03790 -8.74855 49.16950 -5.04467 8.59494 29.75060 5.60164 -11.69500 -13.97290 -0.98263 13.15000 3.65331 2.69815 -1.97025 -0.13808 -3.22615 2.35706 11.81330 -14.42620 12.00860 -18.81890 2.45051 16.75010 -11.14020 13.00250 -12.86470 0.39576 0.12310 -7.43272 7.27800 
-70.49860 99.51250 54.05420 0.49161 -3.82080 -43.74420 2.38544 2.53289 2.36436 4.63540 5.24633 4.94985 -10.69230 -0.40607 16.44250 -0.00000 -0.00000 0.00000 -104.47200 -58.55860 -104.54400 -32.90560 26.40300 -67.28990 14.14150 7.26151 -18.05340 -6.91938 0.13244 -1.39174 63.75370 3.86142 102.19600 36.86060 -9.02748 49.05380 -5.00605 8.60098 29.89110 5.39324 -11.78410 -13.80180 -0.95820 13.33720 3.31174 2.79222 -2.02607 -0.14107 -3.18995 2.25178 11.80100 -14.64950 12.10130 -18.60920 2.72831 16.80820 -11.42640 12.67170 -12.61720 0.35388 0.25502 -8.16449 6.88622 
